mtllib tunnels.mtl
# vertices
v 21.490332033288723 64 -168
v -16 -10.980664016235096 -256
v 0 -14.757751656028265 -168
v 21.49033200809572 64 -496
v -16 -10.980664016235432 -456
v 0 -14.757751656028375 -456
v 31.378875851618723 48 -168
v 31.378875830258497 48 -456
v 96 -14.757751656343316 -576
v 64.62112417187927 48 -456
v 74.50966799185346 64 -544
v 96 -14.75775165615778 -168
v 64.62112417194133 48 -168
v 74.50966799193523 64 -168
v 112 -10.980664016374249 -584
v 112 -10.980664016185322 -168
v 21.490332008127552 64 -496
v 31.378875828126183 48 -456
v 31.378875828123896 48 -168
v 21.49033200812485 64 -168
v 74.50966799208283 64 -544
v 74.50966799188609 64 -168
v 64.6211241717335 48 -168
v 64.62112417188291 48 -456
v -16 -10.980664016249818 -456
v -16 -64 -456
v -16 -64 -168
v -16 -10.98066401624196 -256
v 0 -14.757751656241574 -168
v 0 -64 -168
v 0 -64 -456
v 0 -14.757751656252896 -456
v 112 -64 -584
v 96 -64 -168
v 96 -14.757751656233268 -168
v 112 -10.980664016254277 -584
v 112 -10.980664016237995 -168
v 112 -64 -168
v -304 64 -493.4903320081212
v -304 48 -503.37887582812255
v -304 -14.757751656239524 -472
v -304 -10.98066401623589 -456
v -16 -10.980664016235938 -456
v -16 -14.757751656239565 -472
v -16 48 -503.37887582812255
v 24 64 -493.4903320081212
v -304 -14.757751656197797 -568
v -304 48 -536.6211241718847
v -304 64 -546.5096679918715
v -304 -10.98066401624277 -584
v 112 -10.980664016242445 -584
v 80 64 -546.5096679918718
v -16 48 -536.6211241718848
v -16 -14.757751656197643 -568
v -304 48 -536.6211241718738
v -304 48 -503.3788758281262
v -304 64 -493.4903320081279
v -304 64 -546.5096679918786
v 24 64 -493.4903320081277
v -16 48 -503.378875828126
v -16 48 -536.6211241718738
v 80 64 -546.5096679918786
v -304 -64 -472
v -304 -64 -456
v -304 -10.980664016243281 -456
v -304 -14.757751656239918 -472
v -16 -14.757751656239902 -472
v -16 -10.980664016243265 -456
v -16 -64 -456
v -16 -64 -472
v -304 -14.75775165623405 -568
v -304 -10.980664016235707 -584
v -304 -64 -584
v -304 -64 -568
v 112 -10.980664016235664 -584
v 96 -64 -576
v 112 -64 -584
v 96 -14.757751656235447 -576
v -556.4507934888261 -14.757751656245091 195.31370849898485
v -578.6390093729042 48 217.50192438306294
v -599.9310242291855 64 182.22539674441262
v -374.99225639118595 48 421.1486773647848
v -352.80404050710376 -14.757751656244988 398.9604614807074
v -368 64 414.15642097359887
v -545.1370849898485 -10.980664016242372 184
v -341.49033200812596 -10.980664016242223 387.6467529817297
v -405.49033200811755 64 451.64675298172006
v -677.0193359837504 64 180.11774900608566
v -726.1564209736061 -10.980664016245427 184
v -432 -10.980664016245688 478.1564209736049
v -624.3330444827417 -14.757751656203913 263.1959594928945
v -420.6862915010163 -14.757751656204066 466.84271247461993
v -602.1448285986698 48 241.00774360882497
v -398.4980756169425 48 444.6544965905523
v -405.4903320081212 64 451.64675298172733
v -677.0193359837504 64 180.11774900609817
v -602.1448285986553 48 241.00774360882133
v -398.4980756169365 48 444.65449659054013
v -578.6390093728878 48 217.50192438305385
v -374.99225639116827 48 421.1486773647721
v -368 64 414.1564209736025
v -599.9310242291831 64 182.22539674442396
v -545.1370849898449 -64 184
v -556.4507934888352 -64 195.31370849898667
v -556.4507934888352 -14.757751656241453 195.31370849898667
v -545.1370849898481 -10.980664016244049 184
v -352.80404050710786 -14.757751656241476 398.960461480714
v -352.8040405071091 -64 398.96046148071275
v -341.4903320081212 -10.980664016244065 387.64675298172733
v -341.49033200812056 -64 387.64675298172426
v -432 -10.98066401623594 478.1564209736025
v -726.1564209737844 -10.980664016235881 184
v -726.1564209736052 -64 184
v -432 -64 478.15642097360444
v -709.1858582251259 -64 189.65685424949308
v -420.68629150101526 -64 466.842712474619
v -420.6862915013985 -14.757751656230134 466.8427124742507
v -709.1858582253066 -14.757751656232841 189.6568542493194
v -599.9310242235006 64 185.77460325389256
v -578.6390093735081 48 150.4980756163386
v -556.4507934888303 -14.757751656029733 172.6862915010164
v -352.8040405071006 -14.757751656029212 -30.960461480714002
v -374.9922563959155 48 -53.14867736951945
v -368 64 -46.15642098034334
v -545.1370849898467 -10.980664016236798 184
v -403.71572875254174 -10.980664016236428 42.57864376269629
v -432 -10.980664016195277 -110.15642097360251
v -726.1564209736061 -10.980664016376977 184
v -671.3624817342456 64 182.22539674443325
v -405.49033200816206 64 -83.64675298176567
v -709.1858582251277 -14.75775165634658 189.65685424949228
v -420.6862915010206 -14.757751656168475 -98.84271247461584
v -602.144828598668 48 126.99225639118293
v -398.49807561698464 48 -76.65449659058851
v -398.498075616837 48 -76.6544965904468
v -602.1448285986626 48 126.9922563911714
v -671.3624817344098 64 182.22539674427753
v -405.4903320081263 64 -83.64675298172995
v -578.639009372906 48 150.4980756169316
v -599.9310242291904 64 185.7746032555806
v -374.99225639117867 48 -53.148677364788455
v -368 64 -46.1564209736045
v -545.1370849898485 -10.980664016249648 184
v -556.4507934888334 -14.757751656252367 172.6862915010188
v -556.4507934888334 -64 172.6862915010188
v -545.13708498985 -64 184
v -352.8040405071042 -64 -30.960461480706726
v -352.8040405071054 -14.757751656241053 -30.96046148070917
v -403.71572875254446 -10.980664016241793 42.57864376269953
v -341.49033200812846 -64 -19.646752981723694
v -432 -64 -110.15642097359887
v -726.156420973577 -64 184
v -726.1564209735698 -10.980664016259528 184
v -432 -10.980664016243253 -110.15642097360126
v -420.68629150101424 -64 -98.8427124746172
v -420.686291501014 -14.757751656237774 -98.84271247461788
v -494.2503877819163 64 -1090.6682144581828
v -506.7179676972428 -10.980664016235096 -1037.2820323027518
v -406.71796769724295 -10.980664016234954 -864.0769515458626
v -330.25038776010626 64 -806.6118820294794
v -348.8615612366953 -14.75775165602788 -795.8667160128359
v -492.86156123669207 -14.757751656028631 -1045.2820323027518
v -321.686657606996 48 -811.5561539386446
v -465.68665762548875 48 -1060.9714702178885
v -472.33429592820835 64 -1158.747101831712
v -469.72312247339255 -14.75775165631785 -1197.2050807568721
v -436.89802608275323 48 -1077.592594388721
v -459.8667160128389 -10.980664016347873 -1212.1332839871538
v -292.8980260826829 48 -828.1772780988103
v -265.723122473399 -14.757751656140115 -843.8667160128301
v -284.3342959281345 64 -833.1215500088061
v -251.86671601284615 -10.980664016165974 -851.8667160128316
v -330.250387781889 64 -806.6118820169067
v -494.25038778188537 64 -1090.6682144581973
v -465.68665762733144 48 -1060.9714702168167
v -321.6866576273367 48 -811.556153926901
v -472.3342959280053 64 -1158.7471018318247
v -436.8980260827302 48 -1077.5925943886905
v -292.89802608286845 48 -828.1772780987012
v -284.33429592818106 64 -833.1215500087806
v -506.717967697241 -10.980664016250657 -1037.2820323027554
v -506.7179676972411 -64 -1037.2820323027554
v -362.7179676972373 -64 -787.8667160128316
v -406.71796769723665 -10.98066401624289 -864.0769515458608
v -348.86156123669207 -14.757751656242078 -795.8667160128376
v -492.8615612366931 -64 -1045.2820323027536
v -492.8615612366931 -14.757751656252955 -1045.2820323027536
v -348.86156123669014 -64 -795.8667160128301
v -459.866716012868 -64 -1212.1332839872157
v -265.7231224733878 -64 -843.8667160128316
v -265.7231224733873 -14.757751656235861 -843.8667160128371
v -459.86671601282876 -10.980664016257366 -1212.1332839871493
v -251.8667160128368 -10.980664016241057 -851.8667160128367
v -251.8667160128316 -64 -851.8667160128316
v -774.8784499912217 64 -925.7496122181001
v -779.8227219012233 48 -934.3133423726558
v -764.133283987163 -14.757751656236877 -907.1384387633059
v -756.1332839871632 -10.98066401623334 -893.2820323027552
v -530.4074056113041 48 -1078.3133423726563
v -514.7179676972437 -14.757751656236934 -1051.1384387633063
v -490.8221175499202 64 -1089.7496122180983
v -506.7179676972446 -10.980664016233284 -1037.2820323027545
v -796.4438460731056 48 -963.1019739172667
v -801.388117983096 64 -971.6657040718055
v -820.1332839871611 -10.980664016249648 -1004.1332839871593
v -812.1332839871646 -14.757751656206374 -990.2768775266143
v -459.86671601288253 -10.980664016249296 -1212.1332839871357
v -468.8343629299094 64 -1163.6657040717837
v -562.7179676972373 -14.757751656206125 -1134.2768775266159
v -547.0285297831875 48 -1107.1019739172666
v -774.8784499912258 64 -925.7496122181034
v -801.3881179831023 64 -971.6657040718164
v -796.4438460730998 48 -963.1019739172589
v -779.8227219012238 48 -934.3133423726584
v -547.0285297831797 48 -1107.1019739172589
v -468.8343629298776 64 -1163.6657040718164
v -530.4074056113051 48 -1078.3133423726608
v -490.8221175499282 64 -1089.7496122181037
v -756.1332839871648 -10.980664016240553 -893.2820323027554
v -764.1332839871648 -14.757751656237815 -907.1384387633079
v -764.1332839871648 -64 -907.1384387633079
v -756.1332839871636 -64 -893.2820323027549
v -514.7179676972446 -64 -1051.138438763308
v -514.717967697246 -14.757751656237815 -1051.1384387633082
v -506.7179676972454 -10.98066401624054 -1037.2820323027559
v -506.7179676972446 -64 -1037.2820323027554
v -812.1332839871619 -14.757751656232564 -990.2768775266101
v -820.1332839871629 -10.980664016235096 -1004.1332839871629
v -820.1332839871629 -64 -1004.1332839871629
v -812.1332839871632 -64 -990.2768775266122
v -459.8667160128371 -64 -1212.1332839871623
v -459.8667160127865 -10.980664016235055 -1212.1332839871916
v -469.7231224733876 -64 -1197.2050807568876
v -469.72312247338925 -14.757751656234698 -1197.205080756885
v -784 -14.757751656015898 -496
v -815.378877021063 48 -496
v -815.3788751076748 48 -784
v -784 -14.757751656027736 -784
v -805.4903316155614 64 -784
v -805.4903337951826 64 -456
v -768 -10.980664016223187 -496
v -768 -10.980664016231458 -696
v -858.5096679896646 64 -784
v -896 -10.980664016190989 -784
v -896 -10.980664016372682 -368
v -858.5096704952477 64 -408
v -880 -14.757750372645354 -376
v -880 -14.75775165616383 -784
v -848.6211210724998 48 -784
v -848.6211253639722 48 -496
v -848.6211210722915 48 -784
v -848.6211253639754 48 -496
v -858.5096704954722 64 -408
v -858.5096648924405 64 -784
v -815.3788770202339 48 -496
v -815.3788727286845 48 -784
v -805.4903289086855 64 -784
v -805.4903337962695 64 -456
v -784 -64 -784
v -784 -64 -496
v -784 -14.757751656254701 -496
v -784 -14.757751656243382 -784
v -768 -10.98066401624376 -696
v -768 -10.980664016251618 -496
v -768 -64 -496
v -768 -64 -784
v -896 -10.98066401625861 -368
v -896 -10.980664016242372 -784
v -896 -64 -784
v -896 -64 -368
v -880 -64 -784
v -880 -14.757751656237328 -784
v -768 -14.757751656248729 -480
v -808 64 -458.50966978002197
v -768 -10.980662986598276 -496
v -768 48 -448.62112536397194
v -480 48 -448.6211210724375
v -480 -14.75775256238725 -480
v -480 64 -458.5096675678358
v -480 -10.980662995440545 -496
v -768 48 -415.37887702018816
v -896 -10.98066401624601 -368
v -864 64 -405.4903346307404
v -768 -14.757751656202117 -384
v -480 -10.98066401624619 -368
v -480 -14.757751656202268 -384
v -480 48 -415.37887510095584
v -480 64 -405.4903320717636
v -768 48 -448.621125363974
v -864 64 -405.4903346307292
v -808 64 -458.5096697800152
v -768 48 -415.37887702022226
v -480 64 -405.4903289086832
v -480 48 -415.3788727286877
v -480 48 -448.62112107243934
v -480 64 -458.5096648924341
v -768 -10.980664016242372 -496
v -768 -64 -496
v -768 -64 -480
v -768 -14.757751656240394 -480
v -480 -14.757751656240435 -480
v -480 -64 -480
v -480 -64 -496
v -480 -10.980664016242395 -496
v -896 -64 -368
v -896 -10.980664016230548 -368
v -880 -14.757751656230539 -376
v -880 -64 -376
v -480 -64 -384
v -480 -14.757751656227814 -384
v -480 -10.98066401623063 -368
v -480 -64 -368
v 112.0555071460205 48 392.87290729006713
v 109.49616367750559 64 383.32130743154994
v 103.93405646171458 -14.75775165602765 362.5632407050724
v 184.79442445350065 -10.980664016235039 324.332351515431
v 377.9795897113273 -10.980664016235407 272.56854249492426
v 426.319834698548 64 298.4286606313053
v 382.12069443297514 -14.757751656028194 288.0233557155443
v 390.2421451157229 48 318.3330222947575
v 123.21857758229544 64 434.5340533267081
v 120.65923411335007 48 424.98245346658405
v 128.78068479155883 -14.757751656165325 455.2921200288238
v 132.92178951319943 -10.980664016192225 470.74693324944997
v 398.84587208457583 48 350.4425684770009
v 522.8784219174968 -14.757751656343352 349.69394962699715
v 486.4066882669613 64 337.2180923680826
v 534.7469332494506 -10.980664016373897 363.07821048680205
v 123.2185775822818 64 434.53405332665716
v 109.49616367099588 64 383.3213074072519
v 112.05550713994216 48 392.87290726737774
v 120.65923411329588 48 424.98245346638475
v 390.242145111195 48 318.333022277855
v 426.3198346938115 64 298.4286606136284
v 398.8458720845865 48 350.44256847700314
v 486.4066882670213 64 337.2180923682972
v 103.93405646171868 -14.757751656245091 362.56324070507253
v 99.79295174007848 -64 347.10842748444884
v 103.93405646171878 -64 362.5632407050739
v 184.79442445351742 -10.980664016242372 324.3323515154261
v 377.979589711329 -64 272.56854249492244
v 377.9795897113269 -10.980664016250218 272.5685424949231
v 382.1206944329715 -64 288.02335571554795
v 382.12069443296707 -14.757751656256382 288.0233557155476
v 132.92178951319693 -10.980664016242372 470.7469332494511
v 128.78068479155718 -14.757751656237815 455.2921200288256
v 128.78068479155718 -64 455.2921200288256
v 132.92178951319747 -64 470.74693324945065
v 534.7469332494438 -64 363.0782104868031
v 534.7469332494466 -10.980664016259183 363.0782104868031
v 339.65258464459475 64 -15.321307407242784
v 303.4397047218008 -10.980664016235096 -5.618095476324925
v 377.97958971132573 -10.980664016235158 272.5685424949231
v 424.54523143822155 64 301.50236361556887
v 318.8945179424261 -14.757751656238796 -9.759200197965566
v 349.2041845047264 48 -17.88065087619054
v 393.4344029319509 -14.757751656238842 268.4274377732825
v 423.7440694942519 48 260.3059870950586
v 486.1632822556985 -14.757751656197797 243.58080944343692
v 455.85361569340967 48 251.7022601216595
v 381.3137307038849 48 -26.484377849587418
v 411.623397266176 -14.757751656201698 -34.60582852780991
v 490.25184388336675 64 341.871795976469
v 534.7469332494426 -10.980664016243502 363.07821048678363
v 390.86533056400003 64 -29.043721318529606
v 427.07821048680125 -10.980664016242372 -38.746933249451104
v 339.6525846445984 64 -15.321307407247332
v 349.20418450472425 48 -17.880650876193613
v 423.74406949425395 48 260.3059870950682
v 424.5452314382272 64 301.50236361557734
v 381.31373070387053 48 -26.484377849585144
v 390.86533056400566 64 -29.043721318532725
v 490.2518438833613 64 341.87179597647264
v 455.85361569339875 48 251.70226012167586
v 377.97958971132357 -10.980664016242372 272.5685424949261
v 303.4397047217981 -10.980664016242372 -5.618095476327652
v 303.4397047217981 -64 -5.61809547632765
v 377.9795897113241 -64 272.5685424949246
v 318.8945179424262 -64 -9.75920019796883
v 318.8945179424262 -14.757751656239847 -9.759200197968827
v 393.43440293195215 -64 268.4274377732835
v 393.4344029319525 -14.757751656240032 268.4274377732846
v 522.8784219174931 -64 349.69394962699334
v 522.8784219174931 -14.757751656237815 349.69394962699334
v 411.6233972661738 -14.75775165623503 -34.605828527809365
v 411.6233972661738 -64 -34.605828527809365
v 534.746933249462 -10.980664016231458 363.0782104868158
v 534.746933249451 -64 363.078210486804
v 427.0782104867976 -64 -38.746933249449285
v 427.078210486802 -10.980664016237247 -38.74693324945053

# texture coordinates
vt 167.11357 64
vt 255.11357 -10.980664
vt 167.11357 -14.757751
vt -66.38785 -54.444447
vt 17.443083 -50.000004
vt 17.443083 -27.77778
vt -66.38785 -18.000002
vt 2.674694 -17.999998
vt -13.765086 -27.777777
vt -13.765086 -50
vt 2.674694 -50
vt 0 -14.757751
vt 16 -10.980664
vt -21.490332 64
vt 31.378876 48
vt 21.490332 64
vt -455.39334 -14.757751
vt -495.39334 64
vt -455.39334 48
vt 24.569479 -50.000004
vt 43.37861 -54.444447
vt 43.37861 -18.000002
vt 24.569479 -18.000002
vt 56.499306 -17.999998
vt -13.665994 -17.999998
vt -13.665994 -50
vt 56.499306 -50
vt 575.2842 -14.757751
vt 455.28418 48
vt 543.2842 64
vt 55.665993 -18.000002
vt -14.499306 -18.000002
vt -14.499306 -50.000004
vt 55.665993 -63.333336
vt -93.378624 -59.777775
vt -74.569496 -50
vt -74.569496 -17.999998
vt -93.378624 -17.999998
vt -11.2762575 -111.50394
vt -15.053345 -95.50394
vt 63.704407 -74.0136
vt 74.50967 64
vt 64.621124 48
vt 96 -14.757751
vt 112 -10.980664
vt 105.76506 -17.999994
vt 89.32528 -17.999994
vt 89.32528 -63.33333
vt 105.76506 -64.22221
vt 24.387848 -17.999998
vt -59.443085 -17.999998
vt -59.443085 -64.22221
vt 24.387848 -59.777775
vt -43.37861 -54.444447
vt -24.569479 -50.000004
vt -24.569479 -18.000002
vt -43.37861 -18.000002
vt -31.378876 -456
vt -21.490332 -496
vt -74.50967 -544
vt 64.621124 -17.999998
vt 31.378876 -17.999998
vt 31.378876 -50
vt 64.621124 -50
vt -74.50967 -59.77778
vt -21.490332 -54.444447
vt -21.490332 -18.000002
vt -74.50967 -18.000002
vt -64.621124 -456
vt 93.378624 -59.777775
vt 93.378624 -17.999998
vt 74.569496 -17.999998
vt 74.569496 -50
vt 10.980664 -50
vt 64 -50
vt 64 -17.999998
vt 10.980664 -27.777777
vt 255.52739 -10.980664
vt 167.52739 -64
vt 167.52739 -14.757751
vt -0.9999995 -14.757751
vt -17 -64
vt -0.9999995 -64
vt 0 -17.999998
vt -16 -17.999998
vt -16 -50
vt 0 -50
vt 0 -64
vt 16 -64
vt -2.674694 -50
vt 13.765086 -50
vt 13.765086 -27.777777
vt -2.674694 -17.999998
vt -64 -17.999998
vt -64 -50
vt -14.757751 -50
vt -14.757751 -17.999998
vt 64 -64.22222
vt 64 -18.000002
vt 14.757751 -18.000002
vt 10.980664 -64.22222
vt -105.76508 -64.22222
vt -89.3253 -18.000002
vt -105.76508 -18.000002
vt 96 -64
vt 112 -64
vt 112 -18.000002
vt 96 -18.000002
vt 112 -64.22222
vt -64 -64.22222
vt -10.980664 -64.22222
vt -10.980664 -18.000002
vt -64 -18.000002
vt -493.49033 64
vt -503.37888 48
vt -472 -14.757751
vt -456 -10.980664
vt 446.23492 -1.9999992
vt 446.23492 -34
vt 462.6747 -34
vt 462.6747 -1.9999992
vt -223.43054 -2.000001
vt -223.43054 -34
vt -204.62141 -34
vt -204.62141 2.4444435
vt 197.33401 -1.9999992
vt 197.33401 -34
vt 267.49933 -34
vt 267.49933 -1.9999992
vt -277.38785 2.4444435
vt -277.38785 -34
vt -193.55692 -34
vt -193.55692 -2.000001
vt -16.606647 -14.757751
vt -16.606647 48
vt 23.393353 64
vt 472 -14.757751
vt 493.49033 64
vt 456 -10.980664
vt -568 -14.757751
vt -536.6211 48
vt -546.50964 64
vt -584 -10.980664
vt -270.44305 12.222221
vt -270.44305 -34
vt -186.61212 -34
vt -186.61212 8.666666
vt 196.50067 -1.9999992
vt 196.50067 -34
vt 266.666 -34
vt 266.666 -1.9999992
vt -341.3786 8.666668
vt -341.3786 -34
vt -322.56946 -34
vt -322.56946 -1.9999992
vt 549.32526 -1.9999982
vt 549.32526 -34
vt 565.765 -34
vt 565.765 12.222224
vt 16.103434 48
vt 16.103434 -14.757751
vt -111.89657 -10.980664
vt 16.490032 48
vt -111.509964 -10.980664
vt -79.509964 64
vt 204.62141 2.4444435
vt 204.62141 -34
vt 223.43054 -34
vt 223.43054 -2.000001
vt 503.37888 -1.9999992
vt 503.37888 -34
vt 536.6211 -34
vt 536.6211 -1.9999992
vt -546.50964 8.666668
vt -546.50964 -34
vt -493.49033 -34
vt -493.49033 2.4444454
vt 322.56946 -1.9999992
vt 322.56946 -34
vt 341.3786 -34
vt 341.3786 8.666668
vt 503.37888 16
vt 536.6211 16
vt 546.50964 -80
vt 493.49033 -24
vt -472 -64
vt -456 -64
vt -462.6747 -1.9999992
vt -462.6747 -34
vt -446.23492 -34
vt -446.23492 -1.9999992
vt 10.980664 -1.9999992
vt 10.980664 -34
vt 64 -34
vt 64 -1.9999992
vt 456 -1.9999992
vt 456 -34
vt 472 -34
vt 472 -1.9999992
vt -64 -1.9999992
vt -64 -34
vt -14.757751 -34
vt -14.757751 -1.9999992
vt 456 -64
vt 472 -64
vt -584 -64
vt -568 -64
vt -565.7651 12.222225
vt -565.7651 -34
vt -549.3253 -34
vt 576 10.444446
vt 568 -34
vt 584 -34
vt 584 12.222223
vt -64 12.222222
vt -10.980664 -34
vt -10.980664 12.222222
vt -565.7651 12.222221
vt -557.1113 10.444444
vt 14.757751 10.444444
vt 14.757751 -34
vt 64 10.444444
vt -112 -64
vt -112 -10.980664
vt -96 -14.757751
vt -96 -64
vt 255.3934 -14.757751
vt 255.3934 48
vt 295.3934 64
vt 295.49927 -3.0000024
vt 295.49927 28.999998
vt 225.33397 28.999998
vt 225.33397 -3.0000024
vt -236.62143 -3.0000014
vt -236.62143 33.444443
vt -255.43056 29
vt -255.43056 -3.0000014
vt 515.99994 -10.980664
vt 531.99994 -14.757751
vt 553.4903 64
vt 521.67474 -3.0000024
vt 521.67474 28.999998
vt 505.23495 28.999998
vt 505.23495 -3.0000024
vt -221.55695 -3.0000014
vt -221.55695 29
vt -305.38788 33.444443
vt -305.38788 -3.0000014
vt -531.99994 -14.757751
vt -515.99994 -10.980664
vt -553.4903 64
vt -563.37885 48
vt -214.61212 -3.0000005
vt -214.61212 39.666664
vt -298.44305 43.22222
vt -298.44305 -3.0000005
vt 624.765 -2.9999986
vt 624.765 43.222225
vt 608.32526 29.000002
vt 608.32526 -2.9999986
vt -255.50995 48
vt -383.50995 -10.980664
vt -351.50995 64
vt -255.89655 -14.757751
vt -383.89655 -10.980664
vt -255.89655 48
vt -354.56943 -3.0000014
vt -354.56943 29
vt -373.37857 39.666664
vt -373.37857 -3.0000014
vt 294.66595 -3.0000024
vt 294.66595 28.999998
vt 224.50066 28.999998
vt 224.50066 -3.0000024
vt -596.62115 48
vt -606.5097 64
vt -644 -10.980664
vt -628 -14.757751
vt 373.37857 -3.0000014
vt 373.37857 39.666664
vt 354.56943 29
vt 354.56943 -3.0000014
vt 563.3789 -256
vt 596.62115 -256
vt 606.5097 -352
vt 596.62115 -3.0000024
vt 596.62115 28.999998
vt 563.3789 28.999998
vt 563.3789 -3.0000024
vt -553.49036 -2.9999986
vt -553.49036 33.444447
vt -606.5097 39.666668
vt -606.5097 -2.9999986
vt 563.37885 -255.99997
vt 606.50964 -351.99997
vt 553.4903 -295.99997
vt 255.43056 -3.0000014
vt 255.43056 29
vt 236.62143 33.444443
vt 236.62143 -3.0000014
vt -563.3789 48
vt -553.49036 64
vt 516 -64
vt 532 -64
vt 532 -14.757751
vt 516 -10.980664
vt -14.757751 -3.0000024
vt -14.757751 28.999998
vt -64 28.999998
vt -64 -3.0000024
vt -505.23495 -3.0000024
vt -505.23495 28.999998
vt -521.67474 28.999998
vt -521.67474 -3.0000024
vt 532 -3.0000024
vt 532 28.999998
vt 516 28.999998
vt 516 -3.0000024
vt 64 -3.0000024
vt 64 28.999998
vt 10.980664 28.999998
vt 10.980664 -3.0000024
vt -532 -14.757751
vt -532 -64
vt -516 -64
vt -516 -10.980664
vt -10.980664 -3.0000024
vt -10.980664 43.22222
vt -64 43.22222
vt 644 -3.0000024
vt 644 43.22222
vt 636 41.444443
vt 628 -3.0000024
vt -608.3253 -3.0000014
vt -624.7651 43.22222
vt -624.7651 -3.0000014
vt -616.1114 41.444443
vt -624.76514 43.22222
vt -608.3254 -3.0000005
vt -368 -64
vt -384 -64
vt -384 -10.980664
vt -368 -14.757751
vt 64 -3.0000005
vt 64 41.444443
vt 14.757751 41.444443
vt 14.757751 -3.0000005
vt -644 -64
vt -628 -64
vt -556.3932 64
vt -516.3932 48
vt -516.3932 -14.757751
vt 108.33397 -25
vt 108.33397 -57
vt 178.49927 -57
vt 178.49927 -25
vt -118.43052 -25
vt -118.43052 -57
vt -99.62139 -61.444447
vt -99.62139 -25
vt -293.49033 64
vt -272 -14.757751
vt -256 -10.980664
vt 251.23494 -34.777775
vt 251.23494 -56.999996
vt 267.6747 -56.999996
vt 267.6747 -24.999996
vt -188.38788 -25
vt -188.38788 -61.444447
vt -104.556946 -57
vt -104.556946 -34.77778
vt 271.99994 -14.757751
vt 303.3788 48
vt 293.49026 64
vt 228.11357 -14.757751
vt 228.11357 64
vt 316.1136 -10.980664
vt -181.44305 -25
vt -181.44305 -71.22223
vt -97.61213 -66.77777
vt -97.61213 -25
vt 63.704407 -346.01364
vt -11.2762575 -383.50397
vt -15.053345 -367.50397
vt 354.3253 -24.999996
vt 354.3253 -70.33333
vt 370.76508 -71.22222
vt 370.76508 -24.999996
vt 516.28406 48
vt 604.28406 64
vt 636.28406 -14.757751
vt -236.37868 -24.999996
vt -236.37868 -66.77777
vt -217.56955 -56.999996
vt -217.56955 -24.999996
vt 107.50072 -24.999992
vt 107.50072 -56.999992
vt 177.66602 -70.33333
vt 177.66602 -24.999992
vt 336.62112 48
vt 368 -14.757751
vt 384 -10.980664
vt 346.50967 64
vt 217.56955 -24.999996
vt 217.56955 -56.999996
vt 236.37868 -66.77777
vt 236.37868 -24.999996
vt -303.37888 -515.99994
vt -346.50967 -603.99994
vt -336.62112 -515.99994
vt -293.49033 -555.99994
vt 303.37888 -25
vt 303.37888 -57
vt 336.62112 -57
vt 336.62112 -25
vt -346.50967 -25
vt -346.50967 -66.77777
vt -293.49033 -61.444447
vt -293.49033 -25
vt 99.62139 -25
vt 99.62139 -61.444447
vt 118.43052 -57
vt 118.43052 -25
vt 293.49033 64
vt 303.37888 48
vt -272 -64
vt -256 -64
vt -64 -25
vt -64 -57
vt -14.757751 -57
vt -14.757751 -25
vt -267.6747 -24.999996
vt -267.6747 -56.999996
vt -251.23494 -56.999996
vt -251.23494 -34.777775
vt 256 -25
vt 256 -57
vt 272 -57
vt 272 -25
vt 10.980664 -34.777775
vt 10.980664 -56.999996
vt 64 -56.999996
vt 64 -24.999996
vt 256 -64
vt 272 -64
vt 272 -14.757751
vt 228.52739 -14.757751
vt 316.5274 -10.980664
vt 228.52739 -64
vt -64 -71.22223
vt -10.980664 -71.22223
vt -10.980664 -25
vt 368 -24.999992
vt 384 -71.22221
vt 384 -24.999992
vt -370.7651 -24.999992
vt -370.7651 -71.22221
vt -354.32532 -24.999992
vt 14.757751 -25
vt 10.980664 -71.22223
vt 64 -71.22223
vt 64 -25
vt 384 -64
vt 368 -64
vt -109.38785 -131.44446
vt -25.55692 -127
vt -25.55692 -104.77778
vt -109.38785 -95
vt 863.1136 64
vt 951.1136 -10.980664
vt 863.1136 -14.757751
vt -95.00002 -14.757751
vt -79.00002 -10.980664
vt -116.49035 64
vt 95.674736 -95
vt 79.234955 -104.77778
vt 79.234955 -127
vt 95.674736 -127
vt 126.37884 48
vt 116.49029 64
vt 94.99996 -14.757751
vt -1151.3934 -14.757751
vt -1191.3934 64
vt -1151.3934 48
vt -25.43049 -127
vt -6.6213627 -131.44446
vt -6.6213627 -95
vt -25.43049 -95
vt 99.499306 -95
vt 29.334007 -95
vt 29.334007 -127
vt 99.499306 -127
vt 1239.2842 64
vt 1271.2842 -14.757751
vt 1151.2842 48
vt -11.2762575 -207.50392
vt -15.053345 -191.50392
vt 63.704407 -170.0136
vt 28.500696 -95
vt 28.500696 -127
vt 98.66599 -140.33334
vt 98.66599 -95
vt -143.37862 -136.77777
vt -124.56948 -127
vt -124.56948 -95
vt -143.37862 -95
vt 198.76503 -95
vt 182.32524 -95
vt 182.32524 -140.33334
vt 198.76503 -141.22223
vt 169.50963 64
vt 159.62108 48
vt 190.99995 -14.757751
vt 206.99995 -10.980664
vt -18.612152 -95
vt -102.443085 -95
vt -102.443085 -141.22223
vt -18.612152 -136.77777
vt 6.6213627 -95
vt 6.6213627 -131.44446
vt 25.43049 -127
vt 25.43049 -95
vt -169.50969 -1239
vt -126.3789 -1151
vt -116.49035 -1191
vt -159.62108 -1151.0001
vt -126.37884 -1151.0001
vt -169.50963 -1239.0001
vt 159.62114 -95
vt 126.3789 -95
vt 126.3789 -127
vt 159.62114 -127
vt -169.50969 -136.77777
vt -116.49035 -131.44446
vt -116.49035 -95
vt -169.50969 -95
vt 169.50969 64
vt 116.49035 64
vt 126.3789 48
vt 159.62114 48
vt 124.56948 -127
vt 143.37862 -136.77777
vt 143.37862 -95
vt 124.56948 -95
vt 10.980664 -127
vt 64 -127
vt 64 -95
vt 10.980664 -104.77778
vt 863.5274 -14.757751
vt 951.5274 -10.980664
vt 863.5274 -64
vt -95.00002 -64
vt -79.00002 -64
vt 95.00002 -95
vt 79.00002 -95
vt 79.00002 -127
vt 95.00002 -127
vt -95.674736 -127
vt -79.234955 -127
vt -79.234955 -104.77778
vt -95.674736 -95
vt 78.99996 -64
vt 94.99996 -64
vt -64 -127
vt -14.757751 -127
vt -14.757751 -95
vt -64 -95
vt 64 -141.22223
vt 14.757751 -95
vt 10.980664 -141.22223
vt -198.76509 -141.22223
vt -182.3253 -95
vt -198.76509 -95
vt 206.99995 -95
vt 190.99995 -95
vt 206.99995 -141.22223
vt 207.00002 -10.980664
vt 191.00002 -14.757751
vt 191.00002 -64
vt 207.00002 -64
vt -64 -141.22223
vt -10.980664 -141.22223
vt -10.980664 -95
vt -1188.4902 64
vt -1198.3788 48
vt -1167 -14.757751
vt -1151 -10.980664
vt 508.33395 -24
vt 578.49927 -24
vt 578.49927 8
vt 508.33395 8
vt -570.6214 12.4444475
vt -589.43054 8.000004
vt -589.43054 -23.999996
vt -570.6214 -23.999996
vt 79.39333 -14.757751
vt 79.39333 48
vt 119.39333 64
vt 1123.2349 8
vt 1123.2349 -24
vt 1139.6747 -24
vt 1139.6747 8
vt -588.3879 12.4444475
vt -588.3879 -23.999996
vt -504.55692 -23.999996
vt -504.55692 8.000004
vt 1188.4902 64
vt 1151 -10.980664
vt 1167 -14.757751
vt -1231.6212 48
vt -1241.5098 64
vt -1279.0001 -10.980664
vt -1263.0001 -14.757751
vt -581.44305 22.222221
vt -581.44305 -24
vt -497.61215 -24
vt -497.61215 18.666666
vt 1226.3253 8.000004
vt 1226.3253 -23.999996
vt 1242.7651 -23.999996
vt 1242.7651 22.222225
vt -707.3786 18.666662
vt -707.3786 -24.000004
vt -688.56946 -24.000004
vt -688.56946 7.999996
vt 507.5007 8
vt 507.5007 -24
vt 577.666 -24
vt 577.666 8
vt -78.89657 48
vt -78.89657 -14.757751
vt -206.89656 -10.980664
vt -175.50996 64
vt -79.50997 48
vt -207.50996 -10.980664
vt -1241.5096 64
vt -1231.6211 48
vt 688.56946 7.999996
vt 688.56946 -24.000004
vt 707.3786 -24.000004
vt 707.3786 18.666662
vt 1198.3788 -24
vt 1231.6211 -24
vt 1231.6211 8
vt 1198.3788 8
vt -1188.4902 12.444444
vt -1241.5096 18.666666
vt -1241.5096 -24
vt -1188.4902 -24
vt 1198.3788 -79.00002
vt 1231.6211 -79.00002
vt 1241.5096 -175.00002
vt 1198.3788 -78.99996
vt 1241.5096 -174.99995
vt 1188.4902 -118.99996
vt 570.6214 12.4444475
vt 570.6214 -23.999996
vt 589.43054 -23.999996
vt 589.43054 8.000004
vt -1167 -64
vt -1151 -64
vt -64 8
vt -64 -24
vt -14.757751 -24
vt -14.757751 8
vt -1139.6747 8
vt -1139.6747 -24
vt -1123.2349 -24
vt -1123.2349 8
vt 1151 8
vt 1151 -24
vt 1167 -24
vt 1167 8
vt 10.980664 8
vt 10.980664 -24
vt 64 -24
vt 64 8
vt 1151 -64
vt 1167 -64
vt -1263 -14.757751
vt -1279 -10.980664
vt -1279 -64
vt -1263 -64
vt -64 22.222221
vt -10.980664 -24
vt -10.980664 22.222221
vt 1271 20.44444
vt 1263 -24.000004
vt 1279 -24.000004
vt 1279 22.222218
vt -1242.7651 22.222225
vt -1242.7651 -23.999996
vt -1226.3253 -23.999996
vt -1242.7651 22.222221
vt -1226.3253 -24
vt -1234.1113 20.444445
vt 14.757751 20.444445
vt 14.757751 -24
vt 64 20.444445
vt -191.00002 -14.757751
vt -191.00002 -64
vt -207.00002 -64
vt -207.00002 -10.980664
vt 337.33405 55.000004
vt 407.49933 55.000004
vt 407.49933 87
vt 337.33405 87
vt -368.62137 86.99999
vt -387.43048 86.99999
vt -387.43048 54.999996
vt -368.62137 50.55555
vt 455.60666 64
vt 495.60666 48
vt 495.60666 -14.757751
vt 784 -14.757751
vt 815.3789 48
vt 805.49036 64
vt -805.49036 64
vt -784 -14.757751
vt -768 -10.980664
vt 749.235 77.22222
vt 749.235 55.000004
vt 765.67474 55.000004
vt 765.67474 87
vt -417.38788 86.99999
vt -417.38788 50.55555
vt -333.55695 54.999996
vt -333.55695 77.22221
vt -783.8865 64
vt -695.8865 -10.980664
vt -783.8865 -14.757751
vt -326.61218 87
vt -410.4431 87
vt -410.4431 40.77778
vt -326.61218 45.222225
vt 852.3253 41.66666
vt 868.7651 40.77777
vt 868.7651 86.99999
vt 852.3253 86.99999
vt 880 -14.757751
vt 896 -10.980664
vt 858.5097 64
vt 848.62115 48
vt 63.704407 -858.0136
vt -11.2762575 -895.5039
vt -15.053344 -879.5039
vt -486.56952 55.000004
vt -486.56952 87
vt -505.37863 87
vt -505.37863 45.222225
vt 406.66605 41.66666
vt 406.66605 86.99999
vt 336.50073 86.99999
vt 336.50073 54.999996
vt -375.7158 -14.7577505
vt -495.7158 48
vt -407.7158 64
vt 486.56952 87
vt 486.56952 55.000004
vt 505.37863 45.222225
vt 505.37863 87
vt -858.5097 408
vt -848.62115 496
vt -815.3789 496
vt 815.3789 55.000004
vt 848.62115 55.000004
vt 848.62115 87
vt 815.3789 87
vt -805.49036 86.99999
vt -858.5097 86.99999
vt -858.5097 45.222218
vt -805.49036 50.55555
vt -805.49036 456
vt 368.62137 50.55555
vt 387.43048 54.999996
vt 387.43048 86.99999
vt 368.62137 86.99999
vt -64 87
vt -64 55.000004
vt -14.757751 55.000004
vt -14.757751 87
vt -749.235 77.22222
vt -765.67474 87
vt -765.67474 55.000004
vt -749.235 55.000004
vt -784 -64
vt -768 -64
vt 768 55.000004
vt 784 55.000004
vt 784 87
vt 768 87
vt 768 -64
vt 784 -64
vt -783.47266 -64
vt -783.47266 -14.757751
vt -695.47266 -10.980664
vt 10.980664 77.22222
vt 10.980664 55.000004
vt 64 55.000004
vt 64 87
vt -10.980664 40.77777
vt -10.980664 86.99999
vt -64 86.99999
vt -64 40.77777
vt 896 40.77777
vt 896 86.99999
vt 880 86.99999
vt 880 -64
vt 896 -64
vt -852.3253 86.99999
vt -868.7651 86.99999
vt -868.7651 40.77777
vt 64 40.77777
vt 64 86.99999
vt 14.757751 86.99999
vt 10.980664 40.77777
vt -480 -14.757751
vt -458.50964 64
vt -496 -10.980663
vt 807.3933 64
vt 767.3933 -14.757751
vt 767.3933 48
vt -157.50076 53
vt -157.50076 85
vt -227.66606 85
vt -227.66606 53
vt 295.37857 53.000008
vt 295.37857 89.44445
vt 276.56943 85.00001
vt 276.56943 53.000008
vt 231.44302 53.000008
vt 231.44302 85.00001
vt 147.61209 89.44445
vt 147.61209 53.000008
vt -463.32526 53
vt -463.32526 85
vt -479.76505 85
vt -479.76505 53
vt 458.50967 64
vt 448.62112 48
vt 480 -14.757752
vt 496 -10.980663
vt -767.51 48
vt -895.51 -10.980664
vt -863.51 64
vt -767.8965 -14.757751
vt -895.8965 -10.980664
vt -767.8965 48
vt -360.23495 52.999996
vt -360.23495 99.22222
vt -376.6747 85
vt -376.67474 53
vt -158.33405 53
vt -158.33405 85
vt -228.49934 85
vt -228.49934 53
vt 238.38788 53
vt 238.38788 95.666664
vt 154.55695 99.22222
vt 154.55695 52.999996
vt 177.43056 53.000008
vt 177.43056 85.00001
vt 158.62143 95.66667
vt 158.62143 53.000008
vt 415.37888 48
vt 405.49033 64
vt 368 -10.980664
vt 384 -14.757751
vt -448.62112 -768
vt -405.49033 -864
vt -458.50964 -808
vt -415.37888 -768
vt -158.62143 53.000008
vt -158.62143 95.66667
vt -177.43056 85.00001
vt -177.43056 53.000008
vt -415.37888 53
vt -415.37888 85
vt -448.62112 85
vt -448.62112 53
vt 458.50964 53
vt 458.50964 89.44444
vt 405.49033 95.666664
vt 405.49033 53
vt -276.56943 53.000008
vt -276.56943 85.00001
vt -295.37857 89.44445
vt -295.37857 53.000008
vt 458.50964 64
vt -496 -10.980664
vt -496 -64
vt -480 -64
vt -14.757751 53
vt -14.757751 85
vt -64 85
vt -64 53
vt -480 53
vt -480 85
vt -496 85
vt -496 53
vt 64 53
vt 64 85
vt 10.980664 85
vt 10.980664 53
vt 479.76505 53
vt 479.76505 85
vt 463.32526 85
vt 463.32526 53
vt 496 -64
vt 496 -10.980664
vt 480 -14.757751
vt 480 -64
vt -896 -64
vt -896 -10.980664
vt -880 -14.757751
vt -880 -64
vt 64 97.44444
vt 14.757751 97.44444
vt 14.757751 53
vt 376.67465 53
vt 368.88864 97.44444
vt 360.23486 99.22222
vt -10.980664 53.000004
vt -10.980664 99.22223
vt -64 99.22223
vt -64 53.000004
vt -368 53.000004
vt -368 99.22223
vt -376 97.44445
vt -384 53.000008
vt 376.67477 53.000008
vt 360.235 99.22223
vt 360.235 53.000004
vt 408.37888 48
vt 398.49033 64
vt 377 -14.757751
vt 6.1135826 -14.757751
vt 6.1135826 64
vt 94.11359 -10.980664
vt -151.55692 -32
vt -151.55692 -9.777779
vt -235.38785 -1.3113022e-06
vt -235.38785 -36.444447
vt 369.6747 -32
vt 369.6747 -1.3113022e-06
vt 353.23492 -9.777779
vt 353.23492 -32
vt -154.62137 -36.444447
vt -154.62137 -1.3113022e-06
vt -173.4305 -1.3113022e-06
vt -173.4305 -32
vt 225.49931 -32
vt 225.49931 -1.3113022e-06
vt 155.334 -1.3113022e-06
vt 155.334 -32
vt -334.39334 64
vt -294.39334 48
vt -294.39334 -14.757751
vt -398.49033 64
vt -377 -14.757751
vt -361 -10.980664
vt 451.50967 64
vt 441.62112 48
vt 473 -14.757751
vt 489 -10.980664
vt 224.666 -1.3113022e-06
vt 154.5007 -1.3113022e-06
vt 154.5007 -32
vt 224.666 -45.333336
vt -291.37863 -41.77778
vt -272.56952 -32
vt -272.56952 -1.3113022e-06
vt -291.37863 -1.3113022e-06
vt 414.2841 -14.757751
vt 294.2841 48
vt 382.2841 64
vt 472.76505 -46.222225
vt 472.76505 -1.3113022e-06
vt 456.3253 -1.3113022e-06
vt 456.3253 -45.333336
vt -144.61215 -41.77778
vt -144.61215 -1.3113022e-06
vt -228.44308 -1.3113022e-06
vt -228.44308 -46.222225
vt 63.704407 -451.0136
vt -11.2762575 -488.50394
vt -15.053345 -472.50394
vt 173.4305 -32
vt 173.4305 -1.3113022e-06
vt 154.62137 -1.3113022e-06
vt 154.62137 -36.444447
vt 441.62112 -1.3113022e-06
vt 408.37888 -1.3113022e-06
vt 408.37888 -32
vt 441.62112 -32
vt -451.50967 -41.77778
vt -398.49033 -36.444447
vt -398.49033 -1.3113022e-06
vt -451.50967 -1.3113022e-06
vt -441.62112 -294
vt -408.37888 -294
vt -451.50967 -382
vt -398.49033 -334
vt 291.37863 -41.77778
vt 291.37863 -1.3113022e-06
vt 272.56952 -1.3113022e-06
vt 272.56952 -32
vt 361 -64
vt 377 -64
vt 94.527405 -10.980664
vt 6.527401 -64
vt 6.527401 -14.757751
vt 64 -32
vt 64 -1.3113022e-06
vt 10.980664 -9.777779
vt 10.980664 -32
vt 377 -32
vt 377 -1.3113022e-06
vt 361 -1.3113022e-06
vt 361 -32
vt -353.23492 -32
vt -353.23492 -9.777779
vt -369.6747 -1.3113022e-06
vt -369.6747 -32
vt -14.757751 -32
vt -14.757751 -1.3113022e-06
vt -64 -1.3113022e-06
vt -64 -32
vt -377 -64
vt -361 -64
vt 473 -64
vt 489 -64
vt 64 -46.222225
vt 14.757751 -1.3113022e-06
vt 10.980664 -46.222225
vt -472.76508 -46.222225
vt -456.32532 -1.3113022e-06
vt -472.76508 -1.3113022e-06
vt 489 -1.3113022e-06
vt 473 -1.3113022e-06
vt 489 -46.222225
vt -10.980664 -46.222225
vt -10.980664 -1.3113022e-06
vt -64 -46.222225
vt -205.38785 8
vt -121.556915 8
vt -121.556915 40
vt -205.38785 44.444443
vt -310 -14.757751
vt -294 -10.980664
vt -331.49033 64
vt -341.37888 48
vt 304.67468 40
vt 288.23492 40
vt 288.23492 8
vt 304.67468 8
vt 331.49033 64
vt 294 -10.980664
vt 310 -14.757751
vt -138.43053 40
vt -138.43053 8
vt -119.62139 8
vt -119.62139 44.444443
vt 125.33401 40
vt 125.33401 8
vt 195.4993 8
vt 195.4993 40
vt 360.39334 -14.757751
vt 360.39334 48
vt 400.39334 64
vt 194.66599 40
vt 124.50068 40
vt 124.50068 8
vt 194.66599 8
vt -456.50998 64
vt -360.50998 48
vt -488.50998 -10.980664
vt -488.89658 -10.980664
vt -360.89658 48
vt -360.89658 -14.757751
vt -256.3786 8
vt -237.56949 8
vt -237.56949 40
vt -256.3786 50.666668
vt -422 -10.980664
vt -406 -14.757751
vt -374.62112 48
vt -384.50967 64
vt 407.76508 54.22222
vt 391.3253 40
vt 391.3253 8
vt 407.76508 8
vt -198.44307 54.22222
vt -198.44307 7.999998
vt -114.61214 7.999998
vt -114.61214 50.666664
vt 119.62139 8
vt 138.43053 8
vt 138.43053 40
vt 119.62139 44.444443
vt 384.50967 -457
vt 331.49033 -401
vt 341.37888 -361
vt 374.62112 40
vt 341.37888 40
vt 341.37888 8
vt 374.62112 8
vt -384.50967 8
vt -331.49033 8
vt -331.49033 44.444443
vt -384.50967 50.666668
vt 374.62112 -361
vt 256.3786 8
vt 256.3786 50.666668
vt 237.56949 40
vt 237.56949 8
vt 10.980664 40
vt 64 40
vt -310 -64
vt -294 -64
vt 310 40
vt 294 40
vt 294 8
vt 310 8
vt -304.67468 8
vt -288.23492 8
vt -288.23492 40
vt -304.67468 40
vt 294 -64
vt 310 -64
vt -64 40
vt -14.757751 40
vt 64 52.444443
vt 14.757751 52.444443
vt 14.757751 7.999998
vt 64 7.999998
vt -489 -10.980664
vt -473 -14.757751
vt -473 -64
vt -489 -64
vt -391.32532 8
vt -399.11133 52.444443
vt -407.7651 54.22222
vt -422 -64
vt -406 -64
vt -407.76508 8
vt -391.3253 8
vt -407.76508 54.22222
vt 422 54.22222
vt 414 52.444443
vt 406 8
vt 422 8
vt -10.980664 8
vt -10.980664 54.22222
vt -64 54.22222

# normals
vn -0.9483424951263533 0.2587706563477697 0.18353272010970437
vn -0.8944271910000124 0.44721359549976497 -7.983829836839785e-16
vn -0.22975292053564728 -0.9732489894704954 1.7374816863797233e-15
vn -0.10113902928264663 -0.42843180324269375 -0.897895921989836
vn 0 -0 1
vn 0.8304547985258464 -0.4152273992756057 -0.37139067637221673
vn 0.8506508082925299 0.5257311122154229 -3.860185874443176e-11
vn 0.8944271909944521 -0.44721359551088546 7.651282271750873e-16
vn -0.9678596631235995 -0.20477885362663967 -0.1459907312319238
vn -0.8944271910000519 -0.4472135954996857 1.9277705211352422e-13
vn -0.8506508083521974 0.5257311121188789 1.8334187160474367e-13
vn -0.47697312761813115 0.21600949456041524 -0.8519604062337239
vn 0.2297529205459906 -0.9732489894680537 4.252262271757403e-13
vn 0.8944271910000653 0.4472135954996592 -1.947240633953398e-13
vn -0.8506508083520226 -0.5257311121191617 -8.845225646970539e-15
vn -0.270757157371526 -0.9150123705747574 -0.2990700978487379
vn 0 -1 -0
vn -0 1 -0
vn 0 -0.9838699100999074 -0.17888543819998318
vn 0.8506508083484581 -0.5257311121249293 4.413579401529443e-13
vn -1 0 0
vn -0.934988076028816 0.303800287753458 0.1830373810041247
vn 0 -0 -1
vn 0.2297529205477324 0.9732489894676426 -3.8262535478689516e-14
vn 1 0 -0
vn -0.9992611746313143 0 -0.03843312210120439
vn -0.22975292054726415 0.9732489894677531 -3.808013942846476e-14
vn -2.5212213525336477e-16 -0.9732489894676349 0.22975292054776478
vn 0 0.5257311121192682 -0.8506508083519568
vn 0 -0.44721359549998346 -0.8944271909999031
vn 9.930136612989574e-17 0.44721359549997963 0.8944271909999049
vn 0.37139067635417206 -0.41522739926871133 -0.8304547985373634
vn 0.8978959219903534 -0.42843180324040725 0.10113902928773834
vn -3.0554266501510525e-16 0.44721359550004025 -0.8944271909998748
vn 2.2503771387576087e-16 -0.44721359550012474 0.8944271909998325
vn 5.036864604526845e-16 0.5257311121186274 0.8506508083523528
vn 6.649374995697345e-16 -0.9732489894682509 -0.22975292054515567
vn 0.12403473458907274 -0.4437601569803563 0.887520313960299
vn 0.15804995788511128 -0.38680596964778524 0.908516016731324
vn -2.948408548990243e-16 -0.5257311121191319 0.8506508083520409
vn 0 -0.5257311121193818 -0.8506508083518866
vn 0.1643989873053573 -0.9863939238321437 -0
vn 0.28800854080348404 -0.9080272480085358 0.3041999298130969
vn -3.6017447893341345e-17 0.9732489894677301 -0.22975292054736127
vn -8.311718744617189e-17 0.9732489894677249 0.22975292054738336
vn 0.00882612167999864 0.8973132339384092 0.4413060839996242
vn 0.019996001199600138 0 0.9998000599800069
vn 0.4472135954999579 0 0.8944271909999159
vn -0.8498330852341712 -0.4152273992687097 0.32460735379518646
vn -0.6324555320336678 -0.4472135954999816 0.6324555320336673
vn -0.6015009550074933 0.5257311121192598 0.6015009550074878
vn -0.5633922017871421 -0.42843180324040786 -0.7064243886911101
vn 0.16245984811673886 -0.9732489894676349 -0.16245984811673847
vn 0.6324555320336632 0.44721359549999307 -0.6324555320336636
vn 0.7071067811865446 1.7714634709897705e-14 0.7071067811865505
vn -0.6324555320336469 0.447213595500039 0.6324555320336476
vn -0.16245984811489386 -0.9732489894682509 0.16245984811489297
vn 0.5306596392604991 -0.3868059696477831 -0.7541760332341219
vn 0.5398658305115341 -0.44376015698035604 -0.7152774343727485
vn 0.6015009550077643 0.5257311121186318 -0.6015009550077656
vn 0.6324555320336169 -0.44721359550012435 -0.632455532033617
vn 0.7071067811865478 3.3903607100307155e-16 0.7071067811865472
vn -0.6015009550074338 -0.5257311121193897 0.6015009550074336
vn -0.11624763874381938 -0.9863939238321437 -0.11624763874381924
vn 0.011449040965526172 -0.9080272480085356 -0.4187546254490989
vn 0.6015009550075425 -0.5257311121191356 -0.601500955007547
vn 0.7071067811865475 -7.785730640847774e-14 0.7071067811865475
vn -0.7071067811865483 0 -0.7071067811865466
vn -0.7071067811865476 -0 0.7071067811865476
vn -0.16245984811645275 0.9732489894677303 0.16245984811645278
vn 0.7071067811865474 -0 -0.7071067811865476
vn 0.7071067811865476 0 0.7071067811865476
vn -0.7071067811865474 0 0.7071067811865476
vn 0.1624598481164696 0.9732489894677248 -0.16245984811646952
vn 0.30580951408350865 0.8973132339384101 -0.3182915350665178
vn 0.31622776601683694 0 -0.9486832980505141
vn 0.6928260941977283 0 -0.7211047102874314
vn 0.7071067811865493 0 0.7071067811865458
vn -0.8498330852387888 -0.4152273992756066 -0.32460735377427585
vn -0.6324555320298111 -0.44721359551088735 -0.6324555320298123
vn -0.6015009548967692 0.5257311124350758 -0.6015009548421784
vn -0.5633922017903762 -0.4284318032426932 0.7064243886871447
vn 0.16245984810817168 -0.9732489894704953 0.16245984810816924
vn 0.6324555320337437 0.4472135954997641 0.632455532033745
vn 0.7071067809608611 -1.5958469580639711e-10 -0.7071067814122339
vn 0.8003566401654201 0.2587706562713774 0.5408021782463536
vn -0.6324555320339189 0.44721359549965967 -0.6324555320336438
vn -0.26515604756777417 0.2160094945604148 0.9396979135328494
vn -0.16245984811518366 -0.9732489894680535 -0.16245984811578507
vn 0.5811490949871488 -0.20477885362664028 0.7876111670761003
vn 0.6015009550077888 0.5257311121188749 0.6015009550075286
vn 0.6324555320339097 -0.44721359549968337 0.6324555320336361
vn 0.7071067811865477 4.661745976295887e-16 -0.7071067811865474
vn -0.6015009550046997 -0.5257311121249315 -0.6015009550053241
vn -0.12649110640673525 -0.9838699100999074 0.12649110640673494
vn -0.02002027220676767 -0.9150123705747574 0.40292871627116605
vn 0.6015009550075172 -0.5257311121191743 0.6015009550075385
vn 0.7071067811865124 -3.18957542513752e-14 -0.7071067811865825
vn -0.7071067811865475 0 0.7071067811865475
vn -0.7071067811865475 0 -0.7071067811865476
vn -0.16245984811674297 0.9732489894676424 -0.16245984811668893
vn 0.7071067811865475 3.430803818635085e-16 0.7071067811865475
vn 0.7071067811865476 0 -0.7071067811865476
vn 0.7905633822071811 0.30380028775345763 0.5317094355698974
vn -0.7071067811865474 0 -0.7071067811865477
vn 0.1624598481163579 0.973248989467753 0.16245984811641184
vn 0.6794080314983049 0 0.7337606740181695
vn -0.7745966692415669 0.44721359549976586 0.44721359550000533
vn -0.7295223322128904 0.25877065634776997 0.633115245603839
vn -0.5365369296677871 -0.42843180324269525 -0.7270311637563253
vn -0.19897186577753667 -0.9732489894704955 0.11487646026782491
vn 0.5000000000000038 -1.3544457399332964e-15 0.8660254037844364
vn 0.533499614031964 -0.41522739927560615 -0.7368611597299466
vn 0.7366852097117967 0.5257311122154225 -0.42532540417969517
vn 0.7745966692367522 -0.4472135955108852 -0.44721359549722506
vn -0.9111864211792485 -0.20477885362663828 0.35749814959788656
vn -0.8390510485566809 0.21600949456041457 -0.49933279100784955
vn -0.7745966692415049 -0.44721359549968576 0.44721359550019263
vn -0.7366852097826792 0.5257311121188791 0.42532540417625714
vn 0.19897186578670775 -0.9732489894680537 -0.11487646027262674
vn 0.49999999999999917 -9.747287041345908e-16 0.8660254037844393
vn 0.7745966692415156 0.44721359549965867 -0.44721359550020107
vn -0.7366852097826261 -0.5257311121191584 0.425325404176004
vn -0.38401762546457135 -0.9150123705747574 -0.12362372356354218
vn -0.08944271909999169 -0.9838699100999074 -0.15491933384829681
vn 0.4999999999999999 2.0102366124817204e-15 0.8660254037844387
vn 0.7366852097797539 -0.525731112124928 -0.42532540417384684
vn -0.8660254037844387 6.861607637270172e-16 0.5000000000000002
vn -0.7182047355744293 0.3038002877534572 0.6260090598061507
vn -0.49999999999999895 0 -0.8660254037844392
vn 0.1989718657879845 0.9732489894676426 -0.11487646027389904
vn 0.5000000000000021 0 0.8660254037844376
vn 0.8660254037844388 0 -0.49999999999999967
vn -0.8846021232967988 0 0.4663465272292646
vn -0.1989718657876172 0.9732489894677531 0.11487646027359881
vn 0.499999999999999 0 0.8660254037844393
vn 0.8660254037844388 0 -0.4999999999999998
vn -0.8660254037844392 -2.9665656212747493e-16 0.499999999999999
vn -0.44721359549995143 -0.4472135954999827 -0.7745966692414729
vn -0.42532540417597653 0.5257311121192727 -0.7366852097825604
vn -0.09359363881728157 -0.41522739926871005 -0.9048902904051317
vn 0.11487646027388124 -0.9732489894676353 0.19897186578803056
vn 0.4472135954999523 0.44721359549998 0.774596669241474
vn 0.8281701930419676 -0.428431803240406 -0.36135899231789437
vn -0.8660254037844393 8.475901775076742e-16 0.4999999999999989
vn -0.4472135954999372 0.4472135955000409 -0.7745966692414475
vn -0.11487646027257763 -0.9732489894682506 -0.1989718657857736
vn 0.4253254041761766 0.5257311121186267 0.7366852097829059
vn 0.4472135954999162 -0.4472135955001257 0.7745966692414106
vn 0.5511773880859461 -0.44376015698035737 0.7065977709698235
vn 0.5911332869612282 -0.3868059696477863 0.7077729712918192
vn -0.8660254037844385 -3.2062034210766556e-16 0.5000000000000004
vn -0.42532540417594483 -0.5257311121193761 -0.7366852097825048
vn 0.14237369936287492 -0.9863939238321437 -0.08219949365267845
vn 0.4015226777492511 -0.9080272480085364 0.11944059664584293
vn 0.425325404176017 -0.5257311121191398 0.7366852097826319
vn -0.8660254037844393 -0 0.499999999999999
vn -0.5 0 -0.8660254037844387
vn -0.11487646027368048 0.9732489894677301 -0.19897186578768228
vn 0.4999999999999997 0 0.8660254037844388
vn 0.866025403784441 0 -0.4999999999999959
vn -0.8660254037844392 0 0.49999999999999895
vn -0.49999999999999967 0 -0.8660254037844387
vn 0.11487646027369133 0.973248989467725 0.19897186578770143
vn 0.22829668759158162 0.8973132339384109 0.37776921874830177
vn 0.517217075002961 0 0.8558542500480916
vn 0.8345119301206999 0 0.5509898714915039
vn -0.8944271841985401 -0.44721360910270946 -7.651282213615967e-16
vn -0.8506508082925326 0.5257311122154185 -1.2637083626881344e-08
vn -0.8304547949568774 -0.4152274132657359 0.37139066871123283
vn 0.10113902887205987 -0.42843180150342036 0.8978959228659802
vn 0.22975292053564728 -0.9732489894704954 -1.7374816863797233e-15
vn 0.8944271824678902 0.44721361256400893 7.983830141477259e-16
vn 0.9483425045638998 0.25877062160177866 -0.1835327203342736
vn -0.8944272029450361 0.44721357160971686 1.9472406599585694e-13
vn -0.2297529205459906 -0.9732489894680537 -4.252262271757403e-13
vn 0.47697312874808806 0.21600950779294806 0.8519604022460833
vn 0.8506508083522 0.5257311121188745 1.2675501473061337e-08
vn 0.8944271733306819 -0.4472136308384239 1.3327810708909704e-08
vn 0.9678596687214117 -0.20477882070620432 0.1459907402976482
vn -0.850650808348458 -0.5257311121249293 -1.2676126172817334e-08
vn 0 -0.9838699100999074 0.17888543819998318
vn 0.2707571570448231 -0.9150123694706785 0.2990701015224679
vn 0.8506508083520232 -0.5257311121191606 1.2675693070474245e-08
vn -0.2297529205477324 0.9732489894676426 3.8262535478689516e-14
vn 0.934988076028816 0.303800287753458 -0.1830373810041247
vn 0.22975292054726415 0.9732489894677531 3.808013942846476e-14
vn 0.9992611746313143 0 0.03843312210120439
vn -0.8978959211142093 -0.42843180497968075 -0.10113902969832511
vn -0.37139068401515823 -0.41522738527858166 0.8304548021063309
vn -1.3328003854877827e-08 -0.44721358190816046 0.8944271977958145
vn -1.2675684814929317e-08 0.525731112119268 0.8506508083519567
vn -9.930137269753608e-17 0.4472136250780022 -0.8944271762108931
vn 2.5212213525336477e-16 -0.9732489894676349 -0.22975292054776478
vn -0.15804994823943386 -0.3868059999334302 -0.908516005515044
vn -0.12403473415096616 -0.4437601704917122 -0.8875203072658482
vn -6.649374995697345e-16 -0.9732489894682509 0.22975292054515567
vn -2.2503771216591077e-16 -0.44721360909194735 -0.894427184203921
vn 3.055426821142879e-16 0.4472136205275989 0.8944271784860949
vn 1.267568456309202e-08 0.5257311121186241 -0.8506508083523548
vn -0.28800853664655285 -0.9080272491939866 -0.3041999302102368
vn -0.1643989873053573 -0.9863939238321437 0
vn -1.267568506677153e-08 -0.5257311121193785 0.8506508083518884
vn 1.2675685404612244e-08 -0.5257311121191358 -0.8506508083520384
vn 3.6017447893341345e-17 0.9732489894677301 0.22975292054736127
vn -0.4472135954999579 0 -0.8944271909999159
vn -0.019996001199600138 0 -0.9998000599800069
vn -0.00882612167999864 0.8973132339384092 -0.4413060839996242
vn 8.311718744617189e-17 0.9732489894677249 -0.22975292054738336
vn -0.9659258262890683 7.595022840747477e-17 0.25881904510252046
vn -0.4227280933417904 0.2587706563477701 -0.8685267448460978
vn -0.2314947914883521 0.44721359549976536 -0.8639503235220974
vn -0.0594644315025531 -0.9732489894704954 -0.2219242796107211
vn 0.2201646299552464 0.5257311122154215 0.8216655848734358
vn 0.2314947914869129 -0.4472135955108853 0.8639503235167267
vn 0.5736733639061543 -0.41522739927560554 0.7060347572431643
vn 0.841124153388087 -0.4284318032426939 -0.33008536556077045
vn -0.9659258262890688 -1.2713852662625074e-15 0.258819045102519
vn -0.23149479148854923 -0.4472135954996855 -0.8639503235220858
vn -0.22016462993357952 0.5257311121188807 -0.8216655849410116
vn -0.10948429610715561 -0.20477885362663933 -0.9726658264857876
vn 0.05946443150481752 -0.9732489894680539 0.22192427962082178
vn 0.23149479148855462 0.4472135954996591 0.8639503235220981
vn 0.6994808299271941 0.216009494560416 -0.681224241218791
vn -0.9659258262890685 1.0721261933235842e-15 0.25881904510251974
vn -0.2201646299333492 -0.5257311121191596 -0.8216655849408949
vn 0.17279006470440086 -0.9838699100999074 -0.04629895829766553
vn 0.21880242245732365 -0.9150123705747569 -0.33893636810169897
vn 0.2201646299320089 -0.5257311121249282 0.8216655849375631
vn -0.9659258262890685 0 0.2588190451025196
vn -0.41879325450821675 0.30380028775345835 -0.8557555697390067
vn -0.25881904510252046 1.0292411455905256e-15 -0.9659258262890684
vn 0.0594644315057162 0.9732489894676426 0.22192427962238498
vn 0.2588190451025203 0 0.9659258262890684
vn 0.9659258262890685 -0 -0.25881904510251963
vn -0.965925826289069 0 0.25881904510251874
vn -0.22150427780362492 0 -0.9751593997468795
vn -0.05946443150552112 0.9732489894677533 -0.22192427962195177
vn 0.2588190451025204 0 0.9659258262890684
vn -0.8639503235219937 0.44721359549997924 0.23149479148832505
vn -0.25881904510252046 -6.356926331303062e-17 -0.9659258262890682
vn -0.2219242796224269 -0.9732489894676347 0.05946443150568755
vn 0.13469976469615733 -0.42843180324040725 0.8934775673529654
vn 0.821665584940827 0.5257311121192694 -0.2201646299333403
vn 0.8639503235219915 -0.44721359549998413 -0.23149479148832441
vn 0.8982807176868903 -0.4152273992687117 0.14379832797521383
vn -0.8639503235219232 -0.4472135955001251 0.23149479148830626
vn -0.8366527449797391 -0.3868059696477852 0.3878057840758751
vn -0.8251762410445468 -0.4437601569803568 0.3495155136647885
vn -0.8216655849412098 0.5257311121186281 0.22016462993344332
vn -0.2588190451025209 -2.9665656212768654e-16 -0.9659258262890683
vn 0.2219242796199069 -0.9732489894682507 -0.059464431505011905
vn 0.8639503235219644 0.44721359550004003 -0.2314947914883174
vn -0.8216655849409077 -0.5257311121191347 0.22016462993336133
vn -0.2588190451025199 9.351426644806895e-16 -0.9659258262890686
vn -0.21929247304966415 -0.908027248008536 0.3569276231083931
vn 0.042549588910193725 -0.9863939238321437 0.15879722765401336
vn 0.8216655849407597 -0.5257311121193821 -0.2201646299333222
vn -0.9659258262890684 0 0.25881904510252024
vn -0.2588190451025205 0 -0.9659258262890684
vn 0.22192427962203712 0.97324898946773 -0.059464431505583414
vn 0.25881904510252046 0 0.9659258262890684
vn 0.9659258262890684 0 -0.25881904510252024
vn -0.9605573531236992 0 0.2780819507986688
vn -0.7482029277778416 0 0.6634699532493284
vn -0.4239845754485549 0.8973132339384089 0.12274379813539611
vn -0.2588190451025213 0 -0.9659258262890682
vn -0.2219242796220585 0.9732489894677248 0.05946443150558901

o entity1_brush0
usemtl __TB_empty
f  1/1/1  2/2/1  3/3/1
usemtl __TB_empty
f  4/4/2  5/5/2  2/6/2  1/7/2
usemtl __TB_empty
f  3/8/3  2/9/3  5/10/3  6/11/3
usemtl __TB_empty
f  6/12/4  5/13/4  4/14/4
usemtl __TB_empty
f  7/15/5  1/16/5  3/12/5
usemtl __TB_empty
f  6/17/6  4/18/6  8/19/6
usemtl __TB_empty
f  8/20/7  4/21/7  1/22/7  7/23/7
usemtl __TB_empty
f  7/24/8  3/25/8  6/26/8  8/27/8

o entity1_brush1
usemtl __TB_empty
f  9/28/9  10/29/9  11/30/9
usemtl __TB_empty
f  12/31/10  13/32/10  10/33/10  9/34/10
usemtl __TB_empty
f  11/35/11  10/36/11  13/37/11  14/38/11
usemtl __TB_empty
f  15/39/12  9/40/12  11/41/12
usemtl __TB_empty
f  14/42/5  13/43/5  12/44/5  16/45/5
usemtl __TB_empty
f  16/46/13  12/47/13  9/48/13  15/49/13
usemtl __TB_empty
f  14/50/14  16/51/14  15/52/14  11/53/14

o entity1_brush2
usemtl __TB_empty
f  17/54/15  18/55/15  19/56/15  20/57/15
usemtl __TB_empty
f  18/58/16  17/59/16  21/60/16
usemtl __TB_empty
f  22/42/5  20/16/5  19/15/5  23/43/5
usemtl __TB_empty
f  23/61/17  19/62/17  18/63/17  24/64/17
usemtl __TB_empty
f  21/65/18  17/66/18  20/67/18  22/68/18
usemtl __TB_empty
f  24/69/19  18/58/19  21/60/19
usemtl __TB_empty
f  21/70/20  22/71/20  23/72/20  24/73/20

o entity1_brush3
usemtl __TB_empty
f  25/74/21  26/75/21  27/76/21  28/77/21
usemtl __TB_empty
f  28/78/22  27/79/22  29/80/22
usemtl __TB_empty
f  29/81/5  27/82/5  30/83/5
usemtl __TB_empty
f  30/84/17  27/85/17  26/86/17  31/87/17
usemtl __TB_empty
f  31/88/23  26/89/23  25/13/23  32/12/23
usemtl __TB_empty
f  32/90/24  25/91/24  28/92/24  29/93/24
usemtl __TB_empty
f  30/94/25  31/95/25  32/96/25  29/97/25

o entity1_brush4
usemtl __TB_empty
f  33/98/26  34/99/26  35/100/26  36/101/26
usemtl __TB_empty
f  36/102/27  35/103/27  37/104/27
usemtl __TB_empty
f  37/45/5  35/44/5  34/105/5  38/106/5
usemtl __TB_empty
f  38/107/17  34/108/17  33/109/17
usemtl __TB_empty
f  33/110/25  36/111/25  37/112/25  38/113/25

o entity2_brush0
usemtl __TB_empty
f  39/114/21  40/115/21  41/116/21  42/117/21
usemtl __TB_empty
f  43/118/28  42/119/28  41/120/28  44/121/28
usemtl __TB_empty
f  45/122/29  40/123/29  39/124/29  46/125/29
usemtl __TB_empty
f  44/126/30  41/127/30  40/128/30  45/129/30
usemtl __TB_empty
f  46/130/31  39/131/31  42/132/31  43/133/31
usemtl __TB_empty
f  44/134/32  45/135/32  46/136/32
usemtl __TB_empty
f  44/137/33  46/138/33  43/139/33

o entity2_brush1
usemtl __TB_empty
f  47/140/21  48/141/21  49/142/21  50/143/21
usemtl __TB_empty
f  51/144/34  50/145/34  49/146/34  52/147/34
usemtl __TB_empty
f  53/148/35  48/149/35  47/150/35  54/151/35
usemtl __TB_empty
f  52/152/36  49/153/36  48/154/36  53/155/36
usemtl __TB_empty
f  54/156/37  47/157/37  50/158/37  51/159/37
usemtl __TB_empty
f  53/160/38  54/161/38  51/162/38
usemtl __TB_empty
f  53/163/39  51/164/39  52/165/39

o entity2_brush2
usemtl __TB_empty
f  55/141/21  56/115/21  57/114/21  58/142/21
usemtl __TB_empty
f  59/166/40  57/167/40  56/168/40  60/169/40
usemtl __TB_empty
f  60/170/17  56/171/17  55/172/17  61/173/17
usemtl __TB_empty
f  62/174/18  58/175/18  57/176/18  59/177/18
usemtl __TB_empty
f  61/178/41  55/179/41  58/180/41  62/181/41
usemtl __TB_empty
f  60/182/42  61/183/42  62/184/42
usemtl __TB_empty
f  60/182/43  62/184/43  59/185/43

o entity2_brush3
usemtl __TB_empty
f  63/186/21  64/187/21  65/117/21  66/116/21
usemtl __TB_empty
f  67/188/44  66/189/44  65/190/44  68/191/44
usemtl __TB_empty
f  68/192/5  65/193/5  64/194/5  69/195/5
usemtl __TB_empty
f  69/196/17  64/197/17  63/198/17  70/199/17
usemtl __TB_empty
f  70/200/23  63/201/23  66/202/23  67/203/23
usemtl __TB_empty
f  67/137/25  68/139/25  69/204/25  70/205/25

o entity2_brush4
usemtl __TB_empty
f  71/140/21  72/143/21  73/206/21  74/207/21
usemtl __TB_empty
f  75/208/45  72/209/45  71/210/45
usemtl __TB_empty
f  76/211/17  74/212/17  73/213/17  77/214/17
usemtl __TB_empty
f  77/215/23  73/201/23  72/216/23  75/217/23
usemtl __TB_empty
f  75/218/46  71/210/46  78/219/46
usemtl __TB_empty
f  78/220/47  71/221/47  74/194/47  76/222/47
usemtl __TB_empty
f  77/223/48  75/224/48  78/225/48  76/226/48

o entity3_brush0
usemtl __TB_empty
f  79/227/49  80/228/49  81/229/49
usemtl __TB_empty
f  82/230/50  80/231/50  79/232/50  83/233/50
usemtl __TB_empty
f  84/234/51  81/235/51  80/236/51  82/237/51
usemtl __TB_empty
f  85/238/52  79/239/52  81/240/52
usemtl __TB_empty
f  83/241/53  79/242/53  85/243/53  86/244/53
usemtl __TB_empty
f  86/245/54  85/246/54  81/247/54  84/248/54
usemtl __TB_empty
f  83/249/55  86/250/55  84/251/55  82/252/55

o entity3_brush1
usemtl __TB_empty
f  87/253/56  88/254/56  89/255/56  90/256/56
usemtl __TB_empty
f  90/257/57  89/258/57  91/259/57  92/260/57
usemtl __TB_empty
f  93/261/58  89/262/58  88/263/58
usemtl __TB_empty
f  91/264/59  89/265/59  93/266/59
usemtl __TB_empty
f  94/267/60  93/268/60  88/269/60  87/270/60
usemtl __TB_empty
f  92/271/61  91/272/61  93/273/61  94/274/61
usemtl __TB_empty
f  94/275/62  87/276/62  90/277/62  92/278/62

o entity3_brush2
usemtl __TB_empty
f  95/279/63  96/280/63  97/281/63  98/282/63
usemtl __TB_empty
f  99/283/64  97/284/64  96/285/64
usemtl __TB_empty
f  98/286/17  97/287/17  99/288/17  100/289/17
usemtl __TB_empty
f  101/290/18  102/291/18  96/292/18  95/293/18
usemtl __TB_empty
f  99/294/65  96/295/65  102/296/65
usemtl __TB_empty
f  100/297/66  99/298/66  102/299/66  101/300/66
usemtl __TB_empty
f  98/275/67  100/301/67  101/302/67  95/276/67

o entity3_brush3
usemtl __TB_empty
f  103/303/68  104/304/68  105/305/68  106/306/68
usemtl __TB_empty
f  107/307/69  105/308/69  104/309/69  108/310/69
usemtl __TB_empty
f  109/311/70  106/312/70  105/313/70  107/314/70
usemtl __TB_empty
f  108/315/17  104/316/17  103/317/17  110/318/17
usemtl __TB_empty
f  110/319/71  103/320/71  106/321/71  109/322/71
usemtl __TB_empty
f  107/323/72  108/324/72  110/325/72  109/326/72

o entity3_brush4
usemtl __TB_empty
f  111/327/73  112/328/73  113/329/73  114/310/73
usemtl __TB_empty
f  114/330/17  113/331/17  115/332/17  116/333/17
usemtl __TB_empty
f  117/334/74  112/335/74  111/336/74
usemtl __TB_empty
f  118/337/75  112/338/75  117/339/75
usemtl __TB_empty
f  115/340/76  113/341/76  112/342/76  118/343/76
usemtl __TB_empty
f  116/344/77  115/345/77  118/346/77  117/347/77
usemtl __TB_empty
f  111/277/78  114/348/78  116/349/78  117/278/78

o entity4_brush0
usemtl __TB_empty
f  119/350/79  120/351/79  121/352/79
usemtl __TB_empty
f  122/353/80  121/354/80  120/355/80  123/356/80
usemtl __TB_empty
f  123/357/81  120/358/81  119/359/81  124/360/81
usemtl __TB_empty
f  119/361/82  121/362/82  125/363/82
usemtl __TB_empty
f  126/364/83  125/365/83  121/366/83  122/367/83
usemtl __TB_empty
f  124/368/84  119/369/84  125/370/84  126/371/84
usemtl __TB_empty
f  122/372/85  123/373/85  124/374/85
usemtl __TB_empty
f  122/375/86  124/376/86  126/377/86

o entity4_brush1
usemtl __TB_empty
f  127/378/87  128/379/87  129/380/87  130/381/87
usemtl __TB_empty
f  129/382/88  128/383/88  131/384/88
usemtl __TB_empty
f  132/385/89  131/386/89  128/387/89  127/388/89
usemtl __TB_empty
f  133/389/90  129/390/90  131/391/90
usemtl __TB_empty
f  130/392/91  129/393/91  133/394/91  134/395/91
usemtl __TB_empty
f  134/396/92  133/397/92  131/398/92  132/399/92
usemtl __TB_empty
f  134/400/93  132/401/93  127/402/93  130/403/93

o entity4_brush2
usemtl __TB_empty
f  135/404/94  136/405/94  137/406/94  138/407/94
usemtl __TB_empty
f  139/408/95  137/409/95  136/410/95
usemtl __TB_empty
f  140/411/96  137/409/96  139/408/96
usemtl __TB_empty
f  141/412/17  139/413/17  136/414/17  135/415/17
usemtl __TB_empty
f  138/416/18  137/417/18  140/418/18  142/419/18
usemtl __TB_empty
f  142/420/97  140/421/97  139/422/97  141/423/97
usemtl __TB_empty
f  135/400/98  138/403/98  142/424/98  141/425/98

o entity4_brush3
usemtl __TB_empty
f  143/363/99  144/362/99  145/426/99  146/427/99
usemtl __TB_empty
f  147/428/100  145/429/100  144/430/100  148/431/100
usemtl __TB_empty
f  148/432/101  144/433/101  143/434/101  149/435/101
usemtl __TB_empty
f  150/436/17  146/437/17  145/438/17  147/439/17
usemtl __TB_empty
f  149/440/102  143/441/102  146/442/102  150/443/102
usemtl __TB_empty
f  150/444/103  147/445/103  148/446/103
usemtl __TB_empty
f  148/447/104  149/448/104  150/449/104

o entity4_brush4
usemtl __TB_empty
f  151/428/105  152/450/105  153/451/105  154/452/105
usemtl __TB_empty
f  155/453/17  152/454/17  151/455/17
usemtl __TB_empty
f  154/456/106  153/457/106  156/458/106
usemtl __TB_empty
f  156/459/107  153/460/107  152/461/107  155/462/107
usemtl __TB_empty
f  151/463/103  154/402/103  156/401/103  155/464/103

o entity5_brush0
usemtl __TB_empty
f  157/465/108  158/466/108  159/467/108  160/468/108
usemtl __TB_empty
f  160/469/109  159/470/109  161/471/109
usemtl __TB_empty
f  162/472/110  158/473/110  157/474/110
usemtl __TB_empty
f  161/475/111  159/476/111  158/477/111  162/478/111
usemtl __TB_empty
f  163/479/112  160/480/112  161/481/112
usemtl __TB_empty
f  162/482/113  157/483/113  164/484/113
usemtl __TB_empty
f  164/485/114  157/486/114  160/487/114  163/488/114
usemtl __TB_empty
f  163/489/115  161/490/115  162/491/115  164/492/115

o entity5_brush1
usemtl __TB_empty
f  165/493/116  166/494/116  167/495/116
usemtl __TB_empty
f  168/496/117  166/497/117  165/498/117
usemtl __TB_empty
f  169/499/118  167/500/118  166/501/118  170/502/118
usemtl __TB_empty
f  165/503/119  167/504/119  169/505/119  171/506/119
usemtl __TB_empty
f  172/507/120  170/508/120  166/509/120  168/510/120
usemtl __TB_empty
f  171/511/121  169/512/121  170/513/121  172/514/121
usemtl __TB_empty
f  171/515/122  172/516/122  168/517/122  165/518/122

o entity5_brush2
usemtl __TB_empty
f  173/519/123  174/520/123  175/521/123  176/522/123
usemtl __TB_empty
f  177/523/124  175/524/124  174/525/124
usemtl __TB_empty
f  178/526/125  175/527/125  177/528/125
usemtl __TB_empty
f  179/529/17  176/530/17  175/531/17  178/532/17
usemtl __TB_empty
f  177/533/18  174/534/18  173/535/18  180/536/18
usemtl __TB_empty
f  180/537/126  173/538/126  176/539/126  179/540/126
usemtl __TB_empty
f  178/541/127  177/542/127  180/543/127  179/544/127

o entity5_brush3
usemtl __TB_empty
f  181/545/128  182/546/128  183/547/128  184/548/128
usemtl __TB_empty
f  185/549/129  184/550/129  183/551/129
usemtl __TB_empty
f  186/552/130  182/553/130  181/473/130  187/472/130
usemtl __TB_empty
f  188/554/17  183/555/17  182/556/17  186/557/17
usemtl __TB_empty
f  187/558/131  181/559/131  184/560/131  185/561/131
usemtl __TB_empty
f  185/481/132  183/562/132  188/563/132
usemtl __TB_empty
f  186/564/133  187/565/133  185/566/133  188/567/133

o entity5_brush4
usemtl __TB_empty
f  189/568/134  190/547/134  191/569/134  192/570/134
usemtl __TB_empty
f  192/571/135  191/572/135  193/573/135
usemtl __TB_empty
f  194/574/17  190/575/17  189/576/17
usemtl __TB_empty
f  193/577/136  191/578/136  190/579/136  194/580/136
usemtl __TB_empty
f  189/581/137  192/582/137  193/583/137  194/567/137

o entity6_brush0
usemtl __TB_empty
f  195/584/138  196/585/138  197/586/138  198/587/138
usemtl __TB_empty
f  197/588/139  196/589/139  199/590/139  200/591/139
usemtl __TB_empty
f  201/592/140  199/593/140  196/594/140  195/595/140
usemtl __TB_empty
f  200/596/141  199/597/141  201/598/141
usemtl __TB_empty
f  202/599/142  198/600/142  197/601/142  200/602/142
usemtl __TB_empty
f  201/603/143  195/604/143  198/605/143  202/606/143
usemtl __TB_empty
f  201/607/144  202/608/144  200/609/144

o entity6_brush1
usemtl __TB_empty
f  203/610/145  204/611/145  205/612/145  206/613/145
usemtl __TB_empty
f  207/614/146  205/615/146  204/616/146  208/617/146
usemtl __TB_empty
f  209/618/147  206/619/147  205/620/147  207/621/147
usemtl __TB_empty
f  208/622/148  204/623/148  203/624/148  210/625/148
usemtl __TB_empty
f  210/626/149  203/627/149  206/628/149  209/629/149
usemtl __TB_empty
f  210/630/150  209/631/150  207/632/150
usemtl __TB_empty
f  208/633/151  210/634/151  207/635/151

o entity6_brush2
usemtl __TB_empty
f  211/584/152  212/636/152  213/637/152  214/585/152
usemtl __TB_empty
f  215/638/153  213/639/153  212/640/153  216/641/153
usemtl __TB_empty
f  214/642/17  213/643/17  215/644/17  217/645/17
usemtl __TB_empty
f  218/646/18  216/647/18  212/648/18  211/649/18
usemtl __TB_empty
f  217/650/154  215/651/154  216/652/154
usemtl __TB_empty
f  217/653/155  216/654/155  218/655/155
usemtl __TB_empty
f  218/656/156  211/657/156  214/658/156  217/659/156

o entity6_brush3
usemtl __TB_empty
f  219/587/157  220/586/157  221/660/157  222/661/157
usemtl __TB_empty
f  223/662/158  221/663/158  220/664/158  224/665/158
usemtl __TB_empty
f  224/666/159  220/667/159  219/668/159  225/669/159
usemtl __TB_empty
f  226/670/17  222/671/17  221/672/17  223/673/17
usemtl __TB_empty
f  225/674/160  219/675/160  222/676/160  226/677/160
usemtl __TB_empty
f  226/678/161  223/679/161  224/609/161  225/608/161

o entity6_brush4
usemtl __TB_empty
f  227/680/162  228/681/162  229/682/162  230/683/162
usemtl __TB_empty
f  231/684/163  229/663/163  228/685/163  232/686/163
usemtl __TB_empty
f  233/687/17  230/688/17  229/689/17  231/690/17
usemtl __TB_empty
f  232/691/164  228/692/164  227/693/164
usemtl __TB_empty
f  232/694/165  227/695/165  234/696/165
usemtl __TB_empty
f  234/697/166  227/698/166  230/676/166  233/699/166
usemtl __TB_empty
f  234/700/167  233/701/167  231/702/167  232/703/167

o entity7_brush0
usemtl __TB_empty
f  235/704/168  236/705/168  237/706/168  238/707/168
usemtl __TB_empty
f  239/708/169  237/709/169  236/710/169  240/711/169
usemtl __TB_empty
f  240/712/170  236/713/170  235/714/170
usemtl __TB_empty
f  238/715/23  237/716/23  239/717/23
usemtl __TB_empty
f  240/718/171  235/719/171  241/720/171
usemtl __TB_empty
f  242/721/172  241/722/172  235/723/172  238/724/172
usemtl __TB_empty
f  239/725/173  240/726/173  241/727/173  242/728/173
usemtl __TB_empty
f  239/729/174  242/730/174  238/731/174

o entity7_brush1
usemtl __TB_empty
f  243/732/175  244/733/175  245/734/175  246/735/175
usemtl __TB_empty
f  247/736/176  245/737/176  244/738/176  248/739/176
usemtl __TB_empty
f  248/740/23  244/741/23  243/742/23  249/743/23
usemtl __TB_empty
f  246/744/177  245/745/177  247/746/177
usemtl __TB_empty
f  250/747/178  249/748/178  243/749/178  246/750/178
usemtl __TB_empty
f  247/751/179  248/752/179  249/753/179  250/754/179
usemtl __TB_empty
f  247/755/180  250/756/180  246/757/180

o entity7_brush2
usemtl __TB_empty
f  251/758/181  252/759/181  253/760/181  254/761/181
usemtl __TB_empty
f  253/762/182  252/763/182  255/764/182
usemtl __TB_empty
f  255/765/17  252/766/17  251/767/17  256/768/17
usemtl __TB_empty
f  257/769/18  254/770/18  253/771/18  258/772/18
usemtl __TB_empty
f  256/716/23  251/743/23  254/742/23  257/717/23
usemtl __TB_empty
f  258/773/183  253/762/183  255/764/183
usemtl __TB_empty
f  258/774/184  255/775/184  256/776/184  257/777/184

o entity7_brush3
usemtl __TB_empty
f  259/778/21  260/779/21  261/780/21  262/781/21
usemtl __TB_empty
f  263/782/185  262/783/185  261/784/185  264/785/185
usemtl __TB_empty
f  264/720/5  261/719/5  260/786/5  265/787/5
usemtl __TB_empty
f  265/788/17  260/789/17  259/790/17  266/791/17
usemtl __TB_empty
f  266/792/23  259/793/23  262/715/23
usemtl __TB_empty
f  266/794/186  262/795/186  263/796/186
usemtl __TB_empty
f  263/797/25  264/798/25  265/799/25  266/800/25

o entity7_brush4
usemtl __TB_empty
f  267/801/21  268/802/21  269/803/21  270/804/21
usemtl __TB_empty
f  270/805/17  269/806/17  271/807/17
usemtl __TB_empty
f  271/808/23  269/809/23  268/741/23  272/740/23
usemtl __TB_empty
f  272/810/187  268/811/187  267/812/187
usemtl __TB_empty
f  270/813/188  271/814/188  272/815/188  267/816/188

o entity8_brush0
usemtl __TB_empty
f  273/817/189  274/818/189  275/819/189
usemtl __TB_empty
f  274/820/190  273/821/190  276/822/190
usemtl __TB_empty
f  277/823/191  276/824/191  273/825/191  278/826/191
usemtl __TB_empty
f  279/827/192  274/828/192  276/829/192  277/830/192
usemtl __TB_empty
f  280/831/193  275/832/193  274/833/193  279/834/193
usemtl __TB_empty
f  278/835/194  273/836/194  275/837/194  280/838/194
usemtl __TB_empty
f  279/839/25  277/840/25  278/841/25  280/842/25

o entity8_brush1
usemtl __TB_empty
f  281/843/195  282/844/195  283/845/195
usemtl __TB_empty
f  284/846/196  282/847/196  281/848/196
usemtl __TB_empty
f  285/849/197  282/850/197  284/851/197  286/852/197
usemtl __TB_empty
f  286/853/198  284/854/198  281/855/198  287/856/198
usemtl __TB_empty
f  288/857/199  283/858/199  282/859/199  285/860/199
usemtl __TB_empty
f  287/861/200  281/862/200  283/863/200  288/864/200
usemtl __TB_empty
f  287/865/25  288/866/25  285/867/25  286/868/25

o entity8_brush2
usemtl __TB_empty
f  289/869/201  290/870/201  291/871/201
usemtl __TB_empty
f  292/872/202  290/870/202  289/869/202
usemtl __TB_empty
f  293/873/203  290/874/203  292/875/203  294/876/203
usemtl __TB_empty
f  294/877/17  292/878/17  289/879/17  295/880/17
usemtl __TB_empty
f  296/881/18  291/882/18  290/883/18  293/884/18
usemtl __TB_empty
f  295/885/204  289/886/204  291/887/204  296/888/204
usemtl __TB_empty
f  295/840/25  296/889/25  293/866/25  294/865/25

o entity8_brush3
usemtl __TB_empty
f  297/890/21  298/891/21  299/892/21  300/817/21
usemtl __TB_empty
f  301/893/5  300/894/5  299/895/5  302/896/5
usemtl __TB_empty
f  302/897/17  299/898/17  298/899/17  303/900/17
usemtl __TB_empty
f  303/901/23  298/902/23  297/903/23  304/904/23
usemtl __TB_empty
f  304/905/205  297/906/205  300/907/205  301/908/205
usemtl __TB_empty
f  303/909/25  304/910/25  301/911/25  302/912/25

o entity8_brush4
usemtl __TB_empty
f  305/913/206  306/914/206  307/915/206  308/916/206
usemtl __TB_empty
f  309/901/207  308/917/207  307/918/207  310/919/207
usemtl __TB_empty
f  310/920/208  307/921/208  306/922/208
usemtl __TB_empty
f  311/923/5  306/924/5  305/925/5  312/926/5
usemtl __TB_empty
f  312/927/17  305/928/17  308/929/17  309/930/17
usemtl __TB_empty
f  310/931/209  306/932/209  311/933/209
usemtl __TB_empty
f  310/868/25  311/867/25  312/464/25  309/463/25

o entity9_brush0
usemtl __TB_empty
f  313/934/210  314/935/210  315/936/210
usemtl __TB_empty
f  315/937/211  314/938/211  316/939/211
usemtl __TB_empty
f  317/940/212  316/941/212  314/942/212  318/943/212
usemtl __TB_empty
f  319/944/213  315/945/213  316/946/213  317/947/213
usemtl __TB_empty
f  318/948/214  314/949/214  313/950/214  320/951/214
usemtl __TB_empty
f  320/952/215  313/953/215  315/954/215  319/955/215
usemtl __TB_empty
f  318/956/216  320/957/216  319/958/216
usemtl __TB_empty
f  318/959/217  319/960/217  317/961/217

o entity9_brush1
usemtl __TB_empty
f  321/962/218  322/963/218  323/964/218  324/965/218
usemtl __TB_empty
f  323/966/219  322/967/219  325/968/219  326/969/219
usemtl __TB_empty
f  327/970/220  325/971/220  322/972/220  321/973/220
usemtl __TB_empty
f  326/974/221  325/975/221  327/976/221
usemtl __TB_empty
f  328/977/222  324/978/222  323/979/222  326/980/222
usemtl __TB_empty
f  327/981/223  321/982/223  324/983/223  328/984/223
usemtl __TB_empty
f  327/985/224  328/986/224  326/987/224

o entity9_brush2
usemtl __TB_empty
f  329/962/225  330/935/225  331/934/225  332/963/225
usemtl __TB_empty
f  333/988/226  331/989/226  330/990/226  334/991/226
usemtl __TB_empty
f  332/992/17  331/993/17  333/994/17  335/995/17
usemtl __TB_empty
f  336/996/18  334/997/18  330/998/18  329/999/18
usemtl __TB_empty
f  335/1000/227  333/1001/227  336/1002/227
usemtl __TB_empty
f  334/1003/228  336/1002/228  333/1001/228
usemtl __TB_empty
f  336/1004/229  329/1005/229  332/1006/229  335/1007/229

o entity9_brush3
usemtl __TB_empty
f  337/936/230  338/1008/230  339/1009/230
usemtl __TB_empty
f  340/1010/231  338/1011/231  337/1012/231
usemtl __TB_empty
f  341/1013/232  338/1014/232  340/1015/232  342/1016/232
usemtl __TB_empty
f  343/1017/17  339/1018/17  338/1019/17  341/1020/17
usemtl __TB_empty
f  342/1021/233  340/1022/233  337/1023/233  344/1024/233
usemtl __TB_empty
f  344/1025/234  337/1026/234  339/1027/234  343/1028/234
usemtl __TB_empty
f  343/1029/235  341/1030/235  342/961/235  344/960/235

o entity9_brush4
usemtl __TB_empty
f  345/965/236  346/964/236  347/1031/236  348/1032/236
usemtl __TB_empty
f  349/1033/237  347/1014/237  346/1034/237  350/1035/237
usemtl __TB_empty
f  350/1036/238  346/1037/238  345/1038/238
usemtl __TB_empty
f  348/1039/17  347/1040/17  349/1041/17
usemtl __TB_empty
f  350/1042/239  345/1043/239  348/1027/239  349/1044/239

o entity10_brush0
usemtl __TB_empty
f  351/1045/240  352/1046/240  353/1047/240  354/1048/240
usemtl __TB_empty
f  355/1049/241  352/1050/241  351/1051/241  356/1052/241
usemtl __TB_empty
f  357/1053/242  353/1054/242  352/1055/242  355/1056/242
usemtl __TB_empty
f  354/1057/243  353/1058/243  357/1059/243
usemtl __TB_empty
f  358/1060/244  356/1061/244  351/1062/244  354/1063/244
usemtl __TB_empty
f  357/1064/245  355/1065/245  356/1066/245  358/1067/245
usemtl __TB_empty
f  357/1068/246  358/1069/246  354/1070/246

o entity10_brush1
usemtl __TB_empty
f  359/1071/247  360/1072/247  361/1073/247  362/1074/247
usemtl __TB_empty
f  363/1075/248  360/1076/248  364/1077/248
usemtl __TB_empty
f  364/1078/249  360/1079/249  359/1080/249
usemtl __TB_empty
f  365/1081/250  361/1082/250  360/1083/250  363/1084/250
usemtl __TB_empty
f  366/1085/251  362/1086/251  361/1087/251  365/1088/251
usemtl __TB_empty
f  364/1089/252  359/1090/252  362/1091/252  366/1092/252
usemtl __TB_empty
f  364/1093/253  366/1094/253  365/1095/253  363/1096/253

o entity10_brush2
usemtl __TB_empty
f  367/1097/254  368/1098/254  369/1099/254  370/1100/254
usemtl __TB_empty
f  371/1087/255  368/1052/255  367/1051/255  372/1088/255
usemtl __TB_empty
f  373/1101/256  370/1102/256  369/1103/256
usemtl __TB_empty
f  374/1104/17  369/1105/17  368/1106/17  371/1107/17
usemtl __TB_empty
f  372/1108/18  367/1109/18  370/1110/18  373/1111/18
usemtl __TB_empty
f  373/1101/257  369/1103/257  374/1112/257
usemtl __TB_empty
f  372/1113/258  373/1114/258  374/1115/258  371/1116/258

o entity10_brush3
usemtl __TB_empty
f  375/1117/259  376/674/259  377/677/259  378/1118/259
usemtl __TB_empty
f  379/1119/260  377/1120/260  376/1050/260  380/1049/260
usemtl __TB_empty
f  381/1121/17  378/1122/17  377/1123/17  379/1124/17
usemtl __TB_empty
f  380/1125/261  376/1126/261  375/1127/261  382/1128/261
usemtl __TB_empty
f  382/1059/262  375/1058/262  378/1129/262  381/1130/262
usemtl __TB_empty
f  381/1131/263  379/662/263  380/665/263  382/1132/263

o entity10_brush4
usemtl __TB_empty
f  383/1133/264  384/1134/264  385/1135/264  386/1136/264
usemtl __TB_empty
f  387/1137/265  384/1138/265  383/1139/265  388/1140/265
usemtl __TB_empty
f  385/1141/266  384/1142/266  387/1143/266
usemtl __TB_empty
f  389/1144/267  386/1145/267  385/1086/267  390/1085/267
usemtl __TB_empty
f  390/1146/268  385/1147/268  387/1148/268
usemtl __TB_empty
f  388/1149/17  383/1150/17  386/1151/17  389/1152/17
usemtl __TB_empty
f  389/662/263  390/1153/263  387/1154/263  388/1155/263

